<svg xmlns="http://www.w3.org/2000/svg" xmlns:xlink="http://www.w3.org/1999/xlink" width="100" height="48.714" viewBox="0 0 100 48.714">
  <defs>
    <linearGradient id="linear-gradient" x1="0.5" x2="0.5" y2="1" gradientUnits="objectBoundingBox">
      <stop offset="0" stop-color="#00937e"/>
      <stop offset="1" stop-color="#80c791"/>
    </linearGradient>
  </defs>
  <g id="Group_53" data-name="Group 53" transform="translate(0)">
    <path id="Path_101" data-name="Path 101" d="M135.531,208.3a.169.169,0,0,0,.212.243c3.054-1.322,20.052-7.665,44.37,2.859,10.184,4.407,14.177,4.032,20.182,1.8a.038.038,0,0,0-.019-.073c-4.821.97-10.691,2.1-20.6-4.477C162.7,197.384,146.621,190.2,135.531,208.3Z" transform="translate(-114.569 -197.287)" fill="url(#linear-gradient)"/>
    <path id="Path_102" data-name="Path 102" d="M216.553,208.033c3.987,3.979,16.473,14.409,29.668,4.513,0,0-16.6,4.834-29.483-4.724A.14.14,0,0,0,216.553,208.033Z" transform="translate(-153.558 -202.343)" fill="url(#linear-gradient)"/>
    <g id="Group_52" data-name="Group 52" transform="translate(0 21.408)">
      <path id="Path_103" data-name="Path 103" d="M154.811,237.5a8.94,8.94,0,0,0-4.911,1.366v-.96a21.566,21.566,0,0,1-6.6-1.075.165.165,0,0,0-.185.262,2.907,2.907,0,0,1,.8,1.772v25.258H149.9v-9.306a8.94,8.94,0,0,0,4.911,1.366,9.353,9.353,0,0,0,0-18.685Zm-1.182,13.774a4.6,4.6,0,0,1-3.729-1.662v-3.463a3.753,3.753,0,0,1,3.689-3.775h.04a4.457,4.457,0,0,1,0,8.9Z" transform="translate(-119.515 -236.821)" fill="#04103b"/>
      <path id="Path_104" data-name="Path 104" d="M199.234,237.5a8.943,8.943,0,0,0-4.911,1.366v-.96a21.564,21.564,0,0,1-6.6-1.075.165.165,0,0,0-.185.262,2.911,2.911,0,0,1,.8,1.77v25.26h5.982v-9.306a8.943,8.943,0,0,0,4.911,1.366,9.353,9.353,0,0,0,0-18.685Zm-1.182,13.774a4.6,4.6,0,0,1-3.73-1.662v-3.463a3.754,3.754,0,0,1,3.69-3.774h.04a4.457,4.457,0,0,1,0,8.9Z" transform="translate(-140.346 -236.821)" fill="#04103b"/>
      <path id="Path_105" data-name="Path 105" d="M111.721,237.1a2.907,2.907,0,0,1,.8,1.772,8.943,8.943,0,0,0-4.911-1.366,9.353,9.353,0,0,0,0,18.685,8.943,8.943,0,0,0,4.911-1.366v1H118.5V237.909a21.562,21.562,0,0,1-6.6-1.075A.165.165,0,0,0,111.721,237.1Zm.8,12.518a4.6,4.6,0,0,1-3.73,1.662,4.457,4.457,0,0,1,0-8.9,4.7,4.7,0,0,1,2.678.756,2.406,2.406,0,0,1,1.052,2.01Z" transform="translate(-98.711 -236.821)" fill="#04103b"/>
      <path id="Path_106" data-name="Path 106" d="M232.035,237.1a2.906,2.906,0,0,1,.8,1.772h0v16.949h5.982V237.909a21.566,21.566,0,0,1-6.6-1.075A.165.165,0,0,0,232.035,237.1Z" transform="translate(-161.461 -236.821)" fill="#04103b"/>
      <path id="Path_107" data-name="Path 107" d="M269.815,249.871c-4.563-.058-6.429-1.006-6.429-1.006a.166.166,0,0,0-.19.261,2.665,2.665,0,0,1,.638,1.167.73.73,0,0,1-.245.725,3.752,3.752,0,0,1-2.388.78,4.307,4.307,0,0,1,0-8.6,3.337,3.337,0,0,1,3.508,2.7h5.649c-.406-4.616-4.21-7.754-9.158-7.754-5.65,0-9.786,3.914-9.786,9.342,0,5.465,4.136,9.379,9.786,9.379,4.5,0,8.052-2.595,8.965-6.536A.366.366,0,0,0,269.815,249.871Z" transform="translate(-170.359 -237.454)" fill="#04103b"/>
      <path id="Path_108" data-name="Path 108" d="M271.671,257.178a.416.416,0,1,0,0,.829c.249,0,.731,0,.452-.414C271.991,257.4,271.92,257.178,271.671,257.178Z" transform="translate(-179.891 -246.619)" fill="#04103b"/>
    </g>
  </g>
</svg>
