<svg width="120" height="76" viewBox="0 0 120 76" fill="none" xmlns="http://www.w3.org/2000/svg">
<path d="M59.9999 45.0371C55.5296 45.0371 51.5154 47.0143 48.748 50.1169C46.0111 53.2196 41.9665 55.1967 37.4962 55.1967C33.0258 55.1967 28.9812 53.2196 26.2443 50.1169C23.5073 47.0143 19.4931 45.0371 14.9924 45.0371C6.69031 45.0371 0 51.7595 0 60.0332C0 68.3373 6.72072 75.0292 14.9924 75.0292C19.4627 75.0292 23.4769 73.0521 26.2443 69.9494C28.9812 66.8468 33.0258 64.8696 37.4962 64.8696C41.9665 64.8696 46.0111 66.8468 48.748 69.9494C51.485 73.0521 55.4992 75.0292 59.9999 75.0292C68.302 75.0292 74.9923 68.3069 74.9923 60.0332C74.9923 51.7595 68.2716 45.0371 59.9999 45.0371Z" fill="#2FD17C"/>
<path d="M105.007 0C100.537 0 96.5229 1.97717 93.7556 5.0798C91.0186 8.18244 86.974 10.1596 82.5037 10.1596C78.0333 10.1596 73.9888 8.18244 71.2518 5.0798C68.5149 1.97717 64.5007 0 59.9999 0C55.5296 0 51.5154 1.97717 48.748 5.0798C46.0111 8.18244 41.9665 10.1596 37.4962 10.1596C33.0258 10.1596 28.9812 8.18244 26.2443 5.0798C23.5073 1.97717 19.4931 0 14.9924 0C6.69031 0 0 6.72237 0 14.9961C0 23.3002 6.72072 29.9921 14.9924 29.9921C19.4627 29.9921 23.4769 28.015 26.2443 24.9123C28.9812 21.8097 33.0258 19.8325 37.4962 19.8325C41.9665 19.8325 46.0111 21.8097 48.748 24.9123C51.485 28.015 55.4992 29.9921 59.9999 29.9921C64.4703 29.9921 68.4845 28.015 71.2518 24.9123C73.9888 21.8097 78.0333 19.8325 82.5037 19.8325C86.974 19.8325 91.0186 21.8097 93.7556 24.9123C96.4925 28.015 100.507 29.9921 105.007 29.9921C113.31 29.9921 120 23.2698 120 14.9961C120.03 6.72237 113.31 0 105.007 0Z" fill="#2FD17C"/>
</svg>
